<svg xmlns="http://www.w3.org/2000/svg" xmlns:xlink="http://www.w3.org/1999/xlink" contentStyleType="text/css" height="264px" preserveAspectRatio="none" style="width:482px;height:264px;background:#FFFFFF;" version="1.1" viewBox="0 0 482 264" width="482px" zoomAndPan="magnify"><defs/><g><ellipse cx="241" cy="20" fill="#222222" rx="10" ry="10" style="stroke:#222222;stroke-width:1.0;"/><polygon fill="#F1F1F1" points="225.5,50,256.5,50,268.5,62,256.5,74,225.5,74,213.5,62,225.5,50" style="stroke:#181818;stroke-width:0.5;"/><text fill="#000000" font-family="sans-serif" font-size="11" lengthAdjust="spacing" textLength="31" x="225.5" y="65.8081">a &gt; b</text><text fill="#000000" font-family="sans-serif" font-size="11" lengthAdjust="spacing" textLength="21" x="192.5" y="59.4058">ano</text><text fill="#000000" font-family="sans-serif" font-size="11" lengthAdjust="spacing" textLength="14" x="268.5" y="59.4058">ne</text><polygon fill="#F1F1F1" points="101,84,131,84,143,96,131,108,101,108,89,96,101,84" style="stroke:#181818;stroke-width:0.5;"/><text fill="#000000" font-family="sans-serif" font-size="11" lengthAdjust="spacing" textLength="30" x="101" y="99.8081">a &gt; c</text><text fill="#000000" font-family="sans-serif" font-size="11" lengthAdjust="spacing" textLength="21" x="68" y="93.4058">ano</text><text fill="#000000" font-family="sans-serif" font-size="11" lengthAdjust="spacing" textLength="14" x="143" y="93.4058">ne</text><rect fill="#F1F1F1" height="33.9688" rx="12.5" ry="12.5" style="stroke:#181818;stroke-width:0.5;" width="95" x="11" y="118"/><text fill="#000000" font-family="sans-serif" font-size="12" lengthAdjust="spacing" textLength="75" x="21" y="139.1387">A je nejvet&#353;&#237;</text><rect fill="#F1F1F1" height="33.9688" rx="12.5" ry="12.5" style="stroke:#181818;stroke-width:0.5;" width="95" x="126" y="118"/><text fill="#000000" font-family="sans-serif" font-size="12" lengthAdjust="spacing" textLength="75" x="136" y="139.1387">C je nejv&#283;t&#353;&#237;</text><polygon fill="#F1F1F1" points="116,157.9688,128,169.9688,116,181.9688,104,169.9688,116,157.9688" style="stroke:#181818;stroke-width:0.5;"/><polygon fill="#F1F1F1" points="351,84,381,84,393,96,381,108,351,108,339,96,351,84" style="stroke:#181818;stroke-width:0.5;"/><text fill="#000000" font-family="sans-serif" font-size="11" lengthAdjust="spacing" textLength="30" x="351" y="99.8081">b &gt; c</text><text fill="#000000" font-family="sans-serif" font-size="11" lengthAdjust="spacing" textLength="21" x="318" y="93.4058">ano</text><text fill="#000000" font-family="sans-serif" font-size="11" lengthAdjust="spacing" textLength="14" x="393" y="93.4058">ne</text><rect fill="#F1F1F1" height="33.9688" rx="12.5" ry="12.5" style="stroke:#181818;stroke-width:0.5;" width="95" x="261" y="118"/><text fill="#000000" font-family="sans-serif" font-size="12" lengthAdjust="spacing" textLength="75" x="271" y="139.1387">B je nejv&#283;t&#353;&#237;</text><rect fill="#F1F1F1" height="33.9688" rx="12.5" ry="12.5" style="stroke:#181818;stroke-width:0.5;" width="95" x="376" y="118"/><text fill="#000000" font-family="sans-serif" font-size="12" lengthAdjust="spacing" textLength="75" x="386" y="139.1387">C je nejv&#283;t&#353;&#237;</text><polygon fill="#F1F1F1" points="366,157.9688,378,169.9688,366,181.9688,354,169.9688,366,157.9688" style="stroke:#181818;stroke-width:0.5;"/><polygon fill="#F1F1F1" points="241,187.9688,253,199.9688,241,211.9688,229,199.9688,241,187.9688" style="stroke:#181818;stroke-width:0.5;"/><ellipse cx="241" cy="242.9688" fill="none" rx="11" ry="11" style="stroke:#222222;stroke-width:1.0;"/><ellipse cx="241" cy="242.9688" fill="#222222" rx="6" ry="6" style="stroke:#222222;stroke-width:1.0;"/><line style="stroke:#181818;stroke-width:1.0;" x1="89" x2="58.5" y1="96" y2="96"/><line style="stroke:#181818;stroke-width:1.0;" x1="58.5" x2="58.5" y1="96" y2="118"/><polygon fill="#181818" points="54.5,108,58.5,118,62.5,108,58.5,112" style="stroke:#181818;stroke-width:1.0;"/><line style="stroke:#181818;stroke-width:1.0;" x1="143" x2="173.5" y1="96" y2="96"/><line style="stroke:#181818;stroke-width:1.0;" x1="173.5" x2="173.5" y1="96" y2="118"/><polygon fill="#181818" points="169.5,108,173.5,118,177.5,108,173.5,112" style="stroke:#181818;stroke-width:1.0;"/><line style="stroke:#181818;stroke-width:1.0;" x1="58.5" x2="58.5" y1="151.9688" y2="169.9688"/><line style="stroke:#181818;stroke-width:1.0;" x1="58.5" x2="104" y1="169.9688" y2="169.9688"/><polygon fill="#181818" points="94,165.9688,104,169.9688,94,173.9688,98,169.9688" style="stroke:#181818;stroke-width:1.0;"/><line style="stroke:#181818;stroke-width:1.0;" x1="173.5" x2="173.5" y1="151.9688" y2="169.9688"/><line style="stroke:#181818;stroke-width:1.0;" x1="173.5" x2="128" y1="169.9688" y2="169.9688"/><polygon fill="#181818" points="138,165.9688,128,169.9688,138,173.9688,134,169.9688" style="stroke:#181818;stroke-width:1.0;"/><line style="stroke:#181818;stroke-width:1.0;" x1="339" x2="308.5" y1="96" y2="96"/><line style="stroke:#181818;stroke-width:1.0;" x1="308.5" x2="308.5" y1="96" y2="118"/><polygon fill="#181818" points="304.5,108,308.5,118,312.5,108,308.5,112" style="stroke:#181818;stroke-width:1.0;"/><line style="stroke:#181818;stroke-width:1.0;" x1="393" x2="423.5" y1="96" y2="96"/><line style="stroke:#181818;stroke-width:1.0;" x1="423.5" x2="423.5" y1="96" y2="118"/><polygon fill="#181818" points="419.5,108,423.5,118,427.5,108,423.5,112" style="stroke:#181818;stroke-width:1.0;"/><line style="stroke:#181818;stroke-width:1.0;" x1="308.5" x2="308.5" y1="151.9688" y2="169.9688"/><line style="stroke:#181818;stroke-width:1.0;" x1="308.5" x2="354" y1="169.9688" y2="169.9688"/><polygon fill="#181818" points="344,165.9688,354,169.9688,344,173.9688,348,169.9688" style="stroke:#181818;stroke-width:1.0;"/><line style="stroke:#181818;stroke-width:1.0;" x1="423.5" x2="423.5" y1="151.9688" y2="169.9688"/><line style="stroke:#181818;stroke-width:1.0;" x1="423.5" x2="378" y1="169.9688" y2="169.9688"/><polygon fill="#181818" points="388,165.9688,378,169.9688,388,173.9688,384,169.9688" style="stroke:#181818;stroke-width:1.0;"/><line style="stroke:#181818;stroke-width:1.0;" x1="213.5" x2="116" y1="62" y2="62"/><line style="stroke:#181818;stroke-width:1.0;" x1="116" x2="116" y1="62" y2="84"/><polygon fill="#181818" points="112,74,116,84,120,74,116,78" style="stroke:#181818;stroke-width:1.0;"/><line style="stroke:#181818;stroke-width:1.0;" x1="268.5" x2="366" y1="62" y2="62"/><line style="stroke:#181818;stroke-width:1.0;" x1="366" x2="366" y1="62" y2="84"/><polygon fill="#181818" points="362,74,366,84,370,74,366,78" style="stroke:#181818;stroke-width:1.0;"/><line style="stroke:#181818;stroke-width:1.0;" x1="116" x2="116" y1="181.9688" y2="199.9688"/><line style="stroke:#181818;stroke-width:1.0;" x1="116" x2="229" y1="199.9688" y2="199.9688"/><polygon fill="#181818" points="219,195.9688,229,199.9688,219,203.9688,223,199.9688" style="stroke:#181818;stroke-width:1.0;"/><line style="stroke:#181818;stroke-width:1.0;" x1="366" x2="366" y1="181.9688" y2="199.9688"/><line style="stroke:#181818;stroke-width:1.0;" x1="366" x2="253" y1="199.9688" y2="199.9688"/><polygon fill="#181818" points="263,195.9688,253,199.9688,263,203.9688,259,199.9688" style="stroke:#181818;stroke-width:1.0;"/><line style="stroke:#181818;stroke-width:1.0;" x1="241" x2="241" y1="30" y2="50"/><polygon fill="#181818" points="237,40,241,50,245,40,241,44" style="stroke:#181818;stroke-width:1.0;"/><line style="stroke:#181818;stroke-width:1.0;" x1="241" x2="241" y1="211.9688" y2="231.9688"/><polygon fill="#181818" points="237,221.9688,241,231.9688,245,221.9688,241,225.9688" style="stroke:#181818;stroke-width:1.0;"/><!--SRC=[Aov9B2hXuifCqqXKi5D8qbGeoKZDKz18pClNv59GW0edemahA5WvAcIbAkIbPfMbbXnTU7YjDL0qDQSuLK4ZBnMYGi7A6QRao6o4choKp3GkP9L0AvAmMg5WvOJD0E8j0PF59Va50000]--></g></svg>